<?xml version="1.0" encoding="iso-8859-1"?>
<!-- Generator: Adobe Illustrator 19.0.0, SVG Export Plug-In . SVG Version: 6.00 Build 0)  -->
<svg version="1.1" id="Layer_1" xmlns="http://www.w3.org/2000/svg" xmlns:xlink="http://www.w3.org/1999/xlink" x="0px" y="0px"
	 viewBox="0 0 512 512" style="enable-background:new 0 0 512 512;" xml:space="preserve">
<g transform="translate(0 1)">
	<path style="fill:#FFE100;" d="M372.053,131.267H76.8c-3.413,0-6.827-4.267-6.827-8.533V80.067c0-5.12,3.413-8.533,6.827-8.533
		h245.76l51.2,52.053C377.173,126.147,375.467,131.267,372.053,131.267"/>
	<path style="fill:#FFFFFF;" d="M69.973,122.733V80.067c0-5.12,3.413-8.533,6.827-8.533H51.2c-5.12,0-8.533,4.267-8.533,8.533
		v42.667c0,5.12,4.267,8.533,8.533,8.533h25.6C73.387,131.267,69.973,127,69.973,122.733"/>
	<path style="fill:#FFA800;" d="M416.427,123.587l-66.56-52.053H322.56l51.2,52.053c2.56,2.56,1.707,7.68-1.707,7.68h41.813
		C418.133,131.267,419.84,126.147,416.427,123.587"/>
	<path style="fill:#FFE100;" d="M384,237.08l-26.453-47.787c-8.533-15.36-34.133-23.893-50.347-23.893H136.533
		c-16.213,0-30.72,9.387-38.4,23.893l-38.4,69.12c-5.973,11.093-2.56,17.92-14.507,17.92l0,0c-6.827,0-11.947,5.973-11.947,12.8
		c0,18.773,0,53.76,0,76.8c0,11.947,8.533,21.333,18.773,21.333h7.68c0-28.16,22.187-51.2,47.787-51.2s46.08,23.04,46.08,51.2h204.8
		c0-28.16,20.48-51.2,46.08-51.2s47.787,23.04,47.787,51.2h2.56c12.8,0,23.04-11.947,23.04-25.6v-71.68
		c0-6.827-5.12-12.8-11.947-12.8H435.2C409.6,276.333,397.653,261.827,384,237.08"/>
	<path style="fill:#FFFFFF;" d="M22.187,276.333L22.187,276.333c-7.68,0-13.653,5.973-13.653,12.8c0,18.773,0,53.76,0,76.8
		c0,11.947,9.387,21.333,21.333,21.333H51.2l0,0c-10.24-0.853-17.92-10.24-17.92-21.333c0-23.04,0-58.027,0-76.8
		c0-6.827,5.12-12.8,11.947-12.8l0,0"/>
	<path style="fill:#FFA800;" d="M486.4,276.333h-23.893c6.827,0,11.947,5.973,11.947,12.8v72.533c0,11.947-7.68,22.187-17.92,24.747
		v0.853H473.6c14.507,0,25.6-11.947,25.6-25.6v-71.68C499.2,282.307,493.227,276.333,486.4,276.333"/>
	<path style="fill:#63D3FD;" d="M356.693,237.08L332.8,199.533H143.36c-4.267,0-6.827,3.413-6.827,6.827v36.693
		c0,4.267,3.413,6.827,6.827,6.827h223.573C362.667,246.467,359.253,242.2,356.693,237.08"/>
	<path style="fill:#3DB9F9;" d="M382.293,237.08L358.4,199.533h-29.013l23.04,37.547c3.413,5.12,6.827,9.387,10.24,13.653h29.867
		C388.267,246.467,384.853,242.2,382.293,237.08"/>
	<path style="fill:#FECC00;" d="M435.2,387.267c0,28.16-17.067,51.2-38.4,51.2s-38.4-23.04-38.4-51.2s17.067-51.2,38.4-51.2
		S435.2,359.107,435.2,387.267"/>
	<path style="fill:#FFA800;" d="M409.6,336.067c-2.56,0-5.12,0-7.68,0.853c18.773,3.413,33.28,24.747,33.28,50.347
		s-14.507,46.933-33.28,50.347c2.56,0,5.12,0.853,7.68,0.853c28.16,0,51.2-23.04,51.2-51.2S437.76,336.067,409.6,336.067"/>
	<path style="fill:#FECC00;" d="M128,387.267c0,28.16-17.067,51.2-38.4,51.2s-38.4-23.04-38.4-51.2s17.067-51.2,38.4-51.2
		S128,359.107,128,387.267"/>
	<path style="fill:#FFA800;" d="M102.4,336.067c-2.56,0-5.12,0-7.68,0.853c18.773,3.413,33.28,24.747,33.28,50.347
		s-14.507,46.933-33.28,50.347c2.56,0,5.12,0.853,7.68,0.853c28.16,0,51.2-23.04,51.2-51.2S130.56,336.067,102.4,336.067"/>
	<path d="M102.4,447c-33.28,0-59.733-26.453-59.733-59.733s26.453-59.733,59.733-59.733s59.733,26.453,59.733,59.733
		S135.68,447,102.4,447z M102.4,344.6c-23.893,0-42.667,18.773-42.667,42.667c0,23.893,18.773,42.667,42.667,42.667
		s42.667-18.773,42.667-42.667C145.067,363.373,126.293,344.6,102.4,344.6z"/>
	<path d="M119.467,387.267c0,9.387-7.68,17.067-17.067,17.067s-17.067-7.68-17.067-17.067S93.013,370.2,102.4,370.2
		S119.467,377.88,119.467,387.267"/>
	<path d="M409.6,447c-33.28,0-59.733-26.453-59.733-59.733s26.453-59.733,59.733-59.733s59.733,26.453,59.733,59.733
		S442.88,447,409.6,447z M409.6,344.6c-23.893,0-42.667,18.773-42.667,42.667c0,23.893,18.773,42.667,42.667,42.667
		c23.893,0,42.667-18.773,42.667-42.667C452.267,363.373,433.493,344.6,409.6,344.6z"/>
	<path d="M426.667,387.267c0,9.387-7.68,17.067-17.067,17.067c-9.387,0-17.067-7.68-17.067-17.067s7.68-17.067,17.067-17.067
		C418.987,370.2,426.667,377.88,426.667,387.267"/>
	<path d="M477.867,395.8h-25.6v-8.533c0-23.893-18.773-42.667-42.667-42.667c-23.893,0-42.667,18.773-42.667,42.667v8.533H145.067
		v-8.533c0-23.893-18.773-42.667-42.667-42.667s-42.667,18.773-42.667,42.667v8.533H29.867C13.653,395.8,0,382.147,0,365.933v-76.8
		c0-5.973,2.56-11.093,5.973-15.36c4.267-3.413,9.387-5.973,15.36-5.973c10.24,0,19.627-5.12,24.747-13.653l42.667-69.12
		c11.093-17.067,29.867-28.16,50.347-28.16h174.08c20.48,0,40.107,11.093,50.347,28.16l29.867,47.787
		c13.653,21.333,37.547,34.987,62.293,34.987h34.987c11.947,0,21.333,9.387,21.333,21.333v72.533
		C512,380.44,496.64,395.8,477.867,395.8z M468.48,378.733h8.533c9.387,0,17.067-7.68,17.067-17.067v-71.68
		c0-2.56-1.707-4.267-4.267-4.267h-34.987c-31.573,0-60.587-16.213-76.8-42.667l-29.867-47.787
		c-6.827-13.653-20.48-21.333-34.987-21.333h-174.08c-14.507,0-28.16,7.68-35.84,20.48l-42.667,69.12
		c-7.68,12.8-23.04,21.333-38.4,21.333c-1.707,0-2.56,0.853-3.413,1.707c-1.707,0.853-1.707,1.707-1.707,2.56v76.8
		c0,6.827,5.973,12.8,12.8,12.8H43.52c4.267-29.013,29.013-51.2,58.88-51.2s54.613,22.187,58.88,51.2h188.587
		c4.267-29.013,29.013-51.2,58.88-51.2S464.213,349.72,468.48,378.733z"/>
	<path d="M416.427,259.267h-281.6c-8.533,0-15.36-6.827-15.36-15.36v-36.693c0-8.533,6.827-15.36,15.36-15.36h232.107l25.6,41.813
		c2.56,4.267,5.12,7.68,9.387,11.947L416.427,259.267z M136.533,242.2H378.88l0,0l0,0l-20.48-34.133H136.533V242.2z"/>
	<rect x="247.467" y="199.533" width="17.067" height="51.2"/>
	<path d="M298.667,301.933H256c-5.12,0-8.533-3.413-8.533-8.533c0-5.12,3.413-8.533,8.533-8.533h42.667
		c5.12,0,8.533,3.413,8.533,8.533C307.2,298.52,303.787,301.933,298.667,301.933z"/>
	<path d="M298.667,319c-5.12,0-8.533-3.413-8.533-8.533V293.4c0-5.12,3.413-8.533,8.533-8.533s8.533,3.413,8.533,8.533v17.067
		C307.2,315.587,303.787,319,298.667,319z"/>
	<path d="M503.467,327.533h-34.133c-5.12,0-8.533-3.413-8.533-8.533c0-5.12,3.413-8.533,8.533-8.533h34.133
		c5.12,0,8.533,3.413,8.533,8.533C512,324.12,508.587,327.533,503.467,327.533z"/>
	<path d="M42.667,319H8.533C3.413,319,0,315.587,0,310.467c0-5.12,3.413-8.533,8.533-8.533h34.133c5.12,0,8.533,3.413,8.533,8.533
		C51.2,315.587,47.787,319,42.667,319z"/>
	<path d="M136.533,173.933c-1.707,0-2.56,0-4.267-0.853l-59.733-34.133c-4.267-2.56-5.12-7.68-3.413-11.947
		c2.56-4.267,7.68-5.12,11.947-3.413L140.8,157.72c4.267,2.56,5.12,7.68,3.413,11.947
		C142.507,172.227,139.093,173.933,136.533,173.933z"/>
	<path d="M307.2,173.933c-2.56,0-5.973-1.707-7.68-4.267c-2.56-4.267-0.853-9.387,3.413-11.947l59.733-34.133
		c4.267-1.707,9.387-0.853,11.947,3.413c1.707,4.267,0.853,9.387-3.413,11.947l-59.733,34.133
		C309.76,173.933,308.907,173.933,307.2,173.933z"/>
	<path d="M413.867,139.8H51.2c-9.387,0-17.067-7.68-17.067-17.067V80.067C34.133,70.68,41.813,63,51.2,63h298.667
		c1.707,0,3.413,0.853,5.12,1.707l66.56,52.053c4.267,3.413,5.973,9.387,4.267,14.507C424.107,136.387,419.84,139.8,413.867,139.8z
		 M411.307,130.413L411.307,130.413L411.307,130.413z M51.2,80.067v42.667h350.72l-54.613-42.667H51.2z"/>
</g>
<g>
</g>
<g>
</g>
<g>
</g>
<g>
</g>
<g>
</g>
<g>
</g>
<g>
</g>
<g>
</g>
<g>
</g>
<g>
</g>
<g>
</g>
<g>
</g>
<g>
</g>
<g>
</g>
<g>
</g>
</svg>
